<svg xmlns="http://www.w3.org/2000/svg" xmlns:xlink="http://www.w3.org/1999/xlink" width="500" zoomAndPan="magnify" viewBox="0 0 375 374.999991" height="500" preserveAspectRatio="xMidYMid meet" version="1.0"><defs><clipPath id="012cdcab15"><path d="M 2.570312 2.570312 L 372.429688 2.570312 L 372.429688 372.429688 L 2.570312 372.429688 Z M 2.570312 2.570312 " clip-rule="nonzero"/></clipPath><clipPath id="84bc21b81d"><path d="M 187.5 2.570312 C 85.363281 2.570312 2.570312 85.363281 2.570312 187.5 C 2.570312 289.636719 85.363281 372.429688 187.5 372.429688 C 289.636719 372.429688 372.429688 289.636719 372.429688 187.5 C 372.429688 85.363281 289.636719 2.570312 187.5 2.570312 Z M 187.5 2.570312 " clip-rule="nonzero"/></clipPath><clipPath id="625a5ef1ee"><path d="M 2.570312 2.570312 L 372.320312 2.570312 L 372.320312 372.320312 L 2.570312 372.320312 Z M 2.570312 2.570312 " clip-rule="nonzero"/></clipPath><clipPath id="ec77e770a8"><path d="M 187.496094 2.570312 C 85.363281 2.570312 2.570312 85.363281 2.570312 187.496094 C 2.570312 289.628906 85.363281 372.425781 187.496094 372.425781 C 289.628906 372.425781 372.425781 289.628906 372.425781 187.496094 C 372.425781 85.363281 289.628906 2.570312 187.496094 2.570312 Z M 187.496094 2.570312 " clip-rule="nonzero"/></clipPath><clipPath id="2089270928"><path d="M 52 65.046875 L 323 65.046875 L 323 264 L 52 264 Z M 52 65.046875 " clip-rule="nonzero"/></clipPath><clipPath id="45c971fca1"><path d="M 41.765625 153 L 333.515625 153 L 333.515625 299.796875 L 41.765625 299.796875 Z M 41.765625 153 " clip-rule="nonzero"/></clipPath></defs><g clip-path="url(#012cdcab15)"><g clip-path="url(#84bc21b81d)"><path fill="#ffffff" d="M 2.570312 2.570312 L 372.429688 2.570312 L 372.429688 372.429688 L 2.570312 372.429688 Z M 2.570312 2.570312 " fill-opacity="1" fill-rule="nonzero"/></g></g><g clip-path="url(#625a5ef1ee)"><g clip-path="url(#ec77e770a8)"><path stroke-linecap="butt" transform="matrix(0.75, 0, 0, 0.75, 2.568498, 2.568493)" fill="none" stroke-linejoin="miter" d="M 246.570129 0.00242596 C 110.393045 0.00242596 0.00241996 110.393051 0.00241996 246.570135 C 0.00241996 382.747218 110.393045 493.143052 246.570129 493.143052 C 382.747212 493.143052 493.143046 382.747218 493.143046 246.570135 C 493.143046 110.393051 382.747212 0.00242596 246.570129 0.00242596 Z M 246.570129 0.00242596 " stroke="#ffffff" stroke-width="6" stroke-opacity="1" stroke-miterlimit="4"/></g></g><g clip-path="url(#2089270928)"><path fill="#f68712" d="M 187.609375 65.125 C 113.042969 65.125 52.59375 125.550781 52.59375 200.085938 C 52.59375 221.859375 57.761719 242.421875 66.921875 260.632812 L 153.160156 147.269531 L 195.460938 199.742188 L 222.871094 164.730469 L 306.992188 263.152344 C 316.96875 244.332031 322.625 222.871094 322.625 200.085938 C 322.625 125.550781 262.175781 65.125 187.609375 65.125 " fill-opacity="1" fill-rule="nonzero"/></g><g clip-path="url(#45c971fca1)"><path fill="#231f20" d="M 41.742188 299.71875 L 153.242188 153.144531 L 195.503906 205.5625 L 222.996094 170.449219 L 333.480469 299.71875 L 259.828125 241.863281 L 226.304688 217.996094 L 197.539062 226.429688 L 224.777344 259 L 178.699219 231.519531 L 141.535156 208.617188 L 152.226562 254.421875 L 119.128906 233.554688 L 97.238281 276.816406 L 41.742188 299.71875 " fill-opacity="1" fill-rule="nonzero"/></g></svg>